<?xml version="1.0" encoding="utf-8"?>
<!-- Generator: Adobe Illustrator 24.0.2, SVG Export Plug-In . SVG Version: 6.00 Build 0)  -->
<svg version="1.0" xmlns="http://www.w3.org/2000/svg" xmlns:xlink="http://www.w3.org/1999/xlink" x="0px" y="0px" width="127px"
	 height="166px" viewBox="0 0 127 166" style="enable-background:new 0 0 127 166;" xml:space="preserve">
<g id="Layer_1">
	<image style="overflow:visible;" width="125" height="104" xlink:href="9E02CD5.jpg"  transform="matrix(1.0179 0 0 1.0192 0 0)">
	</image>
	<g>
		<path d="M4.7,114.1v-1.2h4.5v1L7.3,116c0.7,0,1.3,0.2,1.7,0.7s0.6,0.9,0.6,1.5c0,0.8-0.3,1.4-0.8,1.8s-1.2,0.7-2.1,0.7
			s-1.7-0.3-2.5-0.8l0.5-1c0.6,0.4,1.3,0.7,2,0.7c0.4,0,0.8-0.1,1.1-0.3s0.4-0.5,0.4-0.9c0-0.4-0.2-0.7-0.5-0.9
			c-0.3-0.2-0.8-0.4-1.3-0.4c-0.3,0-0.6,0-0.8,0.1v-1l1.8-2.1H4.7z"/>
		<path d="M11.2,120.5c-0.2-0.2-0.2-0.4-0.2-0.6c0-0.2,0.1-0.4,0.2-0.6c0.2-0.2,0.4-0.2,0.6-0.2c0.2,0,0.4,0.1,0.6,0.2
			c0.2,0.2,0.2,0.4,0.2,0.6c0,0.2-0.1,0.4-0.2,0.6c-0.2,0.2-0.4,0.2-0.6,0.2C11.5,120.7,11.3,120.6,11.2,120.5z"/>
		<path d="M16.4,115.2c-0.3,0.3-0.6,0.4-1,0.4s-0.8-0.1-1-0.4c-0.3-0.3-0.4-0.6-0.4-1s0.1-0.7,0.4-1c0.3-0.3,0.6-0.4,1-0.4
			s0.8,0.1,1,0.4c0.3,0.3,0.4,0.6,0.4,1S16.7,114.9,16.4,115.2z M14.7,114.8c0.2,0.2,0.4,0.3,0.6,0.3c0.3,0,0.5-0.1,0.6-0.3
			s0.2-0.4,0.2-0.7s-0.1-0.5-0.2-0.7c-0.2-0.2-0.4-0.3-0.6-0.3c-0.3,0-0.5,0.1-0.6,0.3c-0.2,0.2-0.2,0.4-0.2,0.7
			S14.6,114.7,14.7,114.8z"/>
		<path d="M26.9,112.9v1.2h-4.1v2h3.7v1.2h-3.7v2.1H27v1.2h-5.5v-7.7H26.9z"/>
		<path d="M31,114c-0.4,0-0.7,0.1-0.9,0.2c-0.2,0.2-0.4,0.4-0.4,0.7c0,0.3,0.1,0.5,0.4,0.7c0.2,0.2,0.8,0.3,1.5,0.5
			c0.8,0.2,1.4,0.5,1.8,0.8c0.4,0.3,0.6,0.9,0.6,1.5s-0.3,1.2-0.8,1.6c-0.5,0.4-1.2,0.6-2,0.6c-1.2,0-2.3-0.4-3.2-1.2l0.8-1
			c0.8,0.7,1.6,1,2.4,1c0.4,0,0.8-0.1,1-0.3s0.4-0.4,0.4-0.7s-0.1-0.5-0.3-0.7s-0.6-0.3-1.2-0.5c-0.6-0.1-1-0.3-1.3-0.4
			c-0.3-0.1-0.6-0.3-0.8-0.4c-0.5-0.3-0.7-0.9-0.7-1.6c0-0.7,0.3-1.3,0.8-1.6c0.5-0.4,1.2-0.6,1.9-0.6c0.5,0,1,0.1,1.5,0.2
			c0.5,0.2,0.9,0.4,1.3,0.7l-0.7,1c-0.2-0.2-0.5-0.4-0.9-0.5C31.8,114,31.4,114,31,114z"/>
		<path d="M42.1,119.6c-0.8,0.8-1.7,1.1-2.9,1.1s-2.1-0.4-2.9-1.1s-1.2-1.7-1.2-2.8s0.4-2.1,1.2-2.8s1.7-1.1,2.9-1.1
			s2.1,0.4,2.9,1.1s1.2,1.7,1.2,2.8S42.8,118.8,42.1,119.6z M41.1,114.8c-0.5-0.5-1.2-0.8-1.9-0.8s-1.4,0.3-1.9,0.8s-0.8,1.2-0.8,2
			s0.3,1.4,0.8,2s1.2,0.8,1.9,0.8s1.4-0.3,1.9-0.8s0.8-1.2,0.8-2S41.6,115.3,41.1,114.8z"/>
		<path d="M51.3,120.6h-3.4v-7.7h3c0.5,0,1,0.1,1.3,0.2c0.4,0.1,0.7,0.3,0.8,0.5c0.4,0.4,0.5,0.8,0.5,1.3c0,0.6-0.2,1-0.6,1.3
			c-0.1,0.1-0.2,0.2-0.3,0.2c-0.1,0-0.1,0.1-0.3,0.1c0.5,0.1,0.9,0.3,1.1,0.6c0.3,0.3,0.4,0.7,0.4,1.2c0,0.5-0.2,1-0.6,1.4
			C53,120.4,52.3,120.6,51.3,120.6z M49.2,116.1h1.6c0.9,0,1.4-0.3,1.4-1c0-0.4-0.1-0.6-0.3-0.8c-0.2-0.2-0.6-0.2-1.1-0.2h-1.7
			V116.1z M49.2,119.4h2c0.5,0,0.8-0.1,1.1-0.2s0.4-0.4,0.4-0.9c0-0.7-0.5-1-1.6-1h-1.9V119.4z"/>
		<path d="M55.7,112.9h1.3v7.7h-1.3V112.9z"/>
		<path d="M65.5,119.6c-0.8,0.8-1.7,1.1-2.9,1.1s-2.1-0.4-2.9-1.1s-1.2-1.7-1.2-2.8s0.4-2.1,1.2-2.8s1.7-1.1,2.9-1.1
			s2.1,0.4,2.9,1.1s1.2,1.7,1.2,2.8S66.3,118.8,65.5,119.6z M64.6,114.8c-0.5-0.5-1.2-0.8-1.9-0.8s-1.4,0.3-1.9,0.8s-0.8,1.2-0.8,2
			s0.3,1.4,0.8,2s1.2,0.8,1.9,0.8s1.4-0.3,1.9-0.8c0.5-0.5,0.8-1.2,0.8-2S65.1,115.3,64.6,114.8z"/>
		<path d="M68.3,120.6v-7.7h1.3v6.5h3.5v1.2H68.3z"/>
		<path d="M80.8,119.6c-0.8,0.8-1.7,1.1-2.9,1.1c-1.1,0-2.1-0.4-2.9-1.1s-1.2-1.7-1.2-2.8s0.4-2.1,1.2-2.8s1.7-1.1,2.9-1.1
			c1.1,0,2.1,0.4,2.9,1.1s1.2,1.7,1.2,2.8S81.5,118.8,80.8,119.6z M79.8,114.8c-0.5-0.5-1.2-0.8-1.9-0.8s-1.4,0.3-1.9,0.8
			s-0.8,1.2-0.8,2s0.3,1.4,0.8,2s1.2,0.8,1.9,0.8s1.4-0.3,1.9-0.8s0.8-1.2,0.8-2S80.3,115.3,79.8,114.8z"/>
		<path d="M88.9,116.9h1.3v2.6c-0.7,0.8-1.8,1.2-3.1,1.2c-1.1,0-2.1-0.4-2.9-1.1c-0.8-0.7-1.1-1.7-1.1-2.8c0-1.1,0.4-2.1,1.2-2.9
			c0.8-0.8,1.7-1.1,2.8-1.1s2,0.3,2.8,1l-0.7,1c-0.3-0.3-0.6-0.4-0.9-0.5c-0.3-0.1-0.7-0.1-1.1-0.1c-0.8,0-1.4,0.3-2,0.8
			c-0.5,0.5-0.8,1.2-0.8,2c0,0.8,0.3,1.5,0.8,2c0.5,0.5,1.1,0.7,1.9,0.7s1.3-0.2,1.8-0.5V116.9z"/>
		<path d="M91.9,112.9h1.3v7.7h-1.3V112.9z M93.1,112.3H92l1.2-1.6l1.3,0.5L93.1,112.3z"/>
		<path d="M96.4,118.9l-0.8,1.7h-1.4l3.4-7.7H99l3.4,7.7H101l-0.8-1.7H96.4z M99.7,117.7l-1.4-3.2l-1.4,3.2H99.7z"/>
		<path d="M109.5,120.6h-1.3v-3l-2.9-4.7h1.4l2.1,3.5l2.1-3.5h1.4l-2.9,4.7V120.6z"/>
		<path d="M10.2,129.9h1.3v2.6c-0.7,0.8-1.8,1.2-3.1,1.2c-1.1,0-2.1-0.4-2.9-1.1c-0.8-0.7-1.1-1.7-1.1-2.8c0-1.1,0.4-2.1,1.2-2.9
			c0.8-0.8,1.7-1.1,2.8-1.1c1.1,0,2,0.3,2.8,1l-0.7,1c-0.3-0.3-0.6-0.4-0.9-0.5c-0.3-0.1-0.7-0.1-1.1-0.1c-0.8,0-1.4,0.3-2,0.8
			c-0.5,0.5-0.8,1.2-0.8,2c0,0.8,0.3,1.5,0.8,2s1.1,0.7,1.9,0.7c0.7,0,1.3-0.2,1.8-0.5V129.9z"/>
		<path d="M18.6,125.9v1.2h-4.1v2h3.7v1.2h-3.7v2.1h4.2v1.2h-5.5v-7.7H18.6z"/>
		<path d="M26.7,132.6c-0.8,0.8-1.7,1.1-2.9,1.1s-2.1-0.4-2.9-1.1s-1.2-1.7-1.2-2.8s0.4-2.1,1.2-2.8s1.7-1.1,2.9-1.1
			s2.1,0.4,2.9,1.1s1.2,1.7,1.2,2.8S27.5,131.8,26.7,132.6z M25.8,127.8c-0.5-0.5-1.2-0.8-1.9-0.8s-1.4,0.3-1.9,0.8s-0.8,1.2-0.8,2
			s0.3,1.4,0.8,2s1.2,0.8,1.9,0.8s1.4-0.3,1.9-0.8s0.8-1.2,0.8-2S26.3,128.3,25.8,127.8z"/>
		<path d="M29.5,133.6v-7.7h1.3v6.5h3.5v1.2H29.5z"/>
		<path d="M42,132.6c-0.8,0.8-1.7,1.1-2.9,1.1s-2.1-0.4-2.9-1.1s-1.2-1.7-1.2-2.8s0.4-2.1,1.2-2.8s1.7-1.1,2.9-1.1s2.1,0.4,2.9,1.1
			s1.2,1.7,1.2,2.8S42.8,131.8,42,132.6z M41,127.8c-0.5-0.5-1.2-0.8-1.9-0.8s-1.4,0.3-1.9,0.8s-0.8,1.2-0.8,2s0.3,1.4,0.8,2
			s1.2,0.8,1.9,0.8s1.4-0.3,1.9-0.8s0.8-1.2,0.8-2S41.6,128.3,41,127.8z"/>
		<path d="M50.1,129.9h1.3v2.6c-0.7,0.8-1.8,1.2-3.1,1.2c-1.1,0-2.1-0.4-2.9-1.1c-0.8-0.7-1.1-1.7-1.1-2.8c0-1.1,0.4-2.1,1.2-2.9
			c0.8-0.8,1.7-1.1,2.8-1.1c1.1,0,2,0.3,2.8,1l-0.7,1c-0.3-0.3-0.6-0.4-0.9-0.5c-0.3-0.1-0.7-0.1-1.1-0.1c-0.8,0-1.4,0.3-2,0.8
			c-0.5,0.5-0.8,1.2-0.8,2c0,0.8,0.3,1.5,0.8,2s1.1,0.7,1.9,0.7c0.7,0,1.3-0.2,1.8-0.5V129.9z"/>
		<path d="M53.1,125.9h1.3v7.7h-1.3V125.9z M54.3,125.3h-1.1l1.2-1.6l1.3,0.5L54.3,125.3z"/>
		<path d="M57.6,131.9l-0.8,1.7h-1.4l3.4-7.7h1.4l3.4,7.7h-1.4l-0.8-1.7H57.6z M61,130.7l-1.4-3.2l-1.4,3.2H61z"/>
		<path d="M64.6,133.5c-0.2-0.2-0.2-0.4-0.2-0.6c0-0.2,0.1-0.4,0.2-0.6c0.2-0.2,0.3-0.2,0.6-0.2c0.2,0,0.4,0.1,0.6,0.2
			c0.2,0.2,0.2,0.4,0.2,0.6c0,0.2-0.1,0.4-0.2,0.6c-0.2,0.2-0.4,0.2-0.6,0.2C65,133.7,64.8,133.6,64.6,133.5z"/>
		<path d="M73.1,127c-0.4,0-0.7,0.1-0.9,0.2c-0.2,0.2-0.4,0.4-0.4,0.7c0,0.3,0.1,0.5,0.4,0.7s0.8,0.3,1.5,0.5
			c0.8,0.2,1.4,0.5,1.8,0.8c0.4,0.3,0.6,0.9,0.6,1.5s-0.3,1.2-0.8,1.6s-1.2,0.6-2,0.6c-1.2,0-2.3-0.4-3.2-1.2l0.8-1
			c0.8,0.7,1.6,1,2.4,1c0.4,0,0.8-0.1,1-0.3c0.2-0.2,0.4-0.4,0.4-0.7s-0.1-0.5-0.3-0.7c-0.2-0.2-0.6-0.3-1.2-0.5
			c-0.6-0.1-1-0.3-1.3-0.4c-0.3-0.1-0.6-0.3-0.8-0.4c-0.5-0.3-0.7-0.9-0.7-1.6c0-0.7,0.3-1.3,0.8-1.6c0.5-0.4,1.2-0.6,1.9-0.6
			c0.5,0,1,0.1,1.5,0.2c0.5,0.2,0.9,0.4,1.3,0.7l-0.7,1c-0.2-0.2-0.5-0.4-0.9-0.5C73.9,127,73.5,127,73.1,127z"/>
		<path d="M78.8,131.9l-0.8,1.7h-1.4l3.4-7.7h1.4l3.4,7.7h-1.4l-0.8-1.7H78.8z M82.1,130.7l-1.4-3.2l-1.4,3.2H82.1z"/>
		<path d="M88.9,133.6h-1.5l-3.1-7.7h1.5l2.4,5.7l2.4-5.7H92L88.9,133.6z"/>
		<path d="M93.1,125.9h1.3v7.7h-1.3V125.9z"/>
		<path d="M97.6,131.9l-0.8,1.7h-1.4l3.4-7.7h1.4l3.4,7.7h-1.4l-0.8-1.7H97.6z M100.9,130.7l-1.4-3.2l-1.4,3.2H100.9z"/>
		<path d="M104.6,133.5c-0.2-0.2-0.2-0.4-0.2-0.6c0-0.2,0.1-0.4,0.2-0.6c0.2-0.2,0.3-0.2,0.6-0.2s0.4,0.1,0.6,0.2
			c0.2,0.2,0.2,0.4,0.2,0.6c0,0.2-0.1,0.4-0.2,0.6s-0.4,0.2-0.6,0.2S104.7,133.6,104.6,133.5z"/>
		<path d="M7.2,140c-0.4,0-0.7,0.1-0.9,0.2c-0.2,0.2-0.4,0.4-0.4,0.7c0,0.3,0.1,0.5,0.4,0.7c0.2,0.2,0.8,0.3,1.5,0.5
			c0.8,0.2,1.4,0.5,1.8,0.8c0.4,0.3,0.6,0.9,0.6,1.5s-0.3,1.2-0.8,1.6c-0.5,0.4-1.2,0.6-2,0.6c-1.2,0-2.3-0.4-3.2-1.2l0.8-1
			c0.8,0.7,1.6,1,2.4,1c0.4,0,0.8-0.1,1-0.3s0.4-0.4,0.4-0.7s-0.1-0.5-0.3-0.7s-0.6-0.3-1.2-0.5c-0.6-0.1-1-0.3-1.3-0.4
			c-0.3-0.1-0.6-0.3-0.8-0.4c-0.5-0.3-0.7-0.9-0.7-1.6c0-0.7,0.3-1.3,0.8-1.6c0.5-0.4,1.2-0.6,1.9-0.6c0.5,0,1,0.1,1.5,0.2
			c0.5,0.2,0.9,0.4,1.3,0.7l-0.7,1c-0.2-0.2-0.5-0.4-0.9-0.5C8,140,7.6,140,7.2,140z"/>
		<path d="M17.2,138.9v1.2h-4.1v2h3.7v1.2h-3.7v2.1h4.2v1.2h-5.5v-7.7H17.2z"/>
		<path d="M25.2,141.4c0,1.3-0.6,2.1-1.7,2.4l2,2.8h-1.6l-1.8-2.6h-1.7v2.6H19v-7.7h2.9c1.2,0,2,0.2,2.5,0.6
			C24.9,139.9,25.2,140.6,25.2,141.4z M23.4,142.5c0.3-0.2,0.4-0.6,0.4-1.1c0-0.5-0.1-0.8-0.4-1c-0.3-0.2-0.8-0.3-1.5-0.3h-1.6v2.8
			h1.6C22.7,142.9,23.2,142.8,23.4,142.5z"/>
		<path d="M27,138.9h1.3v7.7H27V138.9z"/>
		<path d="M35.9,138.9v1.2h-4.1v2h3.7v1.2h-3.7v2.1H36v1.2h-5.5v-7.7H35.9z"/>
		<path d="M44,146.6h-3.4v-7.7h3c0.5,0,1,0.1,1.3,0.2c0.4,0.1,0.7,0.3,0.8,0.5c0.4,0.4,0.5,0.8,0.5,1.3c0,0.6-0.2,1-0.6,1.3
			c-0.1,0.1-0.2,0.2-0.3,0.2c-0.1,0-0.1,0.1-0.3,0.1c0.5,0.1,0.9,0.3,1.1,0.6c0.3,0.3,0.4,0.7,0.4,1.2c0,0.5-0.2,1-0.6,1.4
			C45.8,146.4,45.1,146.6,44,146.6z M42,142.1h1.6c0.9,0,1.4-0.3,1.4-1c0-0.4-0.1-0.6-0.3-0.8c-0.2-0.2-0.6-0.2-1.1-0.2H42V142.1z
			 M42,145.4h2c0.5,0,0.8-0.1,1.1-0.2s0.4-0.4,0.4-0.9c0-0.7-0.5-1-1.6-1H42V145.4z"/>
		<path d="M54.6,141.4c0,1.3-0.6,2.1-1.7,2.4l2,2.8h-1.6l-1.8-2.6h-1.7v2.6h-1.3v-7.7h2.9c1.2,0,2,0.2,2.5,0.6
			C54.3,139.9,54.6,140.6,54.6,141.4z M52.8,142.5c0.3-0.2,0.4-0.6,0.4-1.1c0-0.5-0.1-0.8-0.4-1c-0.3-0.2-0.8-0.3-1.5-0.3h-1.6v2.8
			h1.6C52.1,142.9,52.6,142.8,52.8,142.5z"/>
		<path d="M61.8,138.9v1.2h-4.1v2h3.7v1.2h-3.7v2.1H62v1.2h-5.5v-7.7H61.8z"/>
		<path d="M67.6,140.1h-4.3v-1.2h6.1v1l-4.5,5.4v0h4.5v1.2h-6.3v-1L67.6,140.1L67.6,140.1z"/>
		<path d="M77.4,145.6c-0.8,0.8-1.7,1.1-2.9,1.1c-1.1,0-2.1-0.4-2.9-1.1s-1.2-1.7-1.2-2.8s0.4-2.1,1.2-2.8s1.7-1.1,2.9-1.1
			c1.1,0,2.1,0.4,2.9,1.1s1.2,1.7,1.2,2.8S78.1,144.8,77.4,145.6z M76.4,140.8c-0.5-0.5-1.2-0.8-1.9-0.8s-1.4,0.3-1.9,0.8
			s-0.8,1.2-0.8,2s0.3,1.4,0.8,2s1.2,0.8,1.9,0.8s1.4-0.3,1.9-0.8s0.8-1.2,0.8-2S76.9,141.3,76.4,140.8z"/>
	</g>
	<g>
		<path style="fill:#878686;" d="M4.7,154.6v-0.9h3.7v0.8l-1.5,1.7c0.6,0,1,0.2,1.4,0.5c0.3,0.3,0.5,0.8,0.5,1.2
			c0,0.6-0.2,1.1-0.7,1.5s-1,0.5-1.7,0.5s-1.4-0.2-2-0.7l0.4-0.9c0.5,0.4,1.1,0.5,1.6,0.5c0.4,0,0.7-0.1,0.9-0.3
			c0.2-0.2,0.4-0.4,0.4-0.7c0-0.3-0.1-0.6-0.4-0.8C7,157.1,6.7,157,6.2,157c-0.2,0-0.5,0-0.7,0.1v-0.8l1.5-1.7H4.7z"/>
		<path style="fill:#878686;" d="M10,159.8c-0.1-0.1-0.2-0.3-0.2-0.5c0-0.2,0.1-0.3,0.2-0.5c0.1-0.1,0.3-0.2,0.5-0.2
			s0.3,0.1,0.5,0.2c0.1,0.1,0.2,0.3,0.2,0.5c0,0.2-0.1,0.3-0.2,0.5c-0.1,0.1-0.3,0.2-0.5,0.2S10.1,159.9,10,159.8z"/>
		<path style="fill:#878686;" d="M14.3,155.5c-0.2,0.2-0.5,0.3-0.9,0.3c-0.3,0-0.6-0.1-0.9-0.3c-0.2-0.2-0.3-0.5-0.3-0.8
			c0-0.3,0.1-0.6,0.3-0.8c0.2-0.2,0.5-0.3,0.9-0.3c0.3,0,0.6,0.1,0.9,0.3s0.3,0.5,0.3,0.8C14.6,155,14.5,155.3,14.3,155.5z
			 M12.9,155.2c0.1,0.1,0.3,0.2,0.5,0.2c0.2,0,0.4-0.1,0.5-0.2c0.1-0.1,0.2-0.3,0.2-0.5s-0.1-0.4-0.2-0.5c-0.1-0.1-0.3-0.2-0.5-0.2
			c-0.2,0-0.4,0.1-0.5,0.2c-0.1,0.1-0.2,0.3-0.2,0.5S12.8,155.1,12.9,155.2z"/>
		<path style="fill:#878686;" d="M22.9,153.6v1h-3.4v1.7h3v0.9h-3v1.7H23v1h-4.5v-6.3H22.9z"/>
		<path style="fill:#878686;" d="M26.3,154.5c-0.3,0-0.6,0.1-0.8,0.2c-0.2,0.1-0.3,0.3-0.3,0.6s0.1,0.4,0.3,0.6
			c0.2,0.1,0.6,0.3,1.3,0.4c0.6,0.2,1.1,0.4,1.5,0.7c0.3,0.3,0.5,0.7,0.5,1.2s-0.2,1-0.6,1.3c-0.4,0.3-1,0.5-1.6,0.5
			c-1,0-1.9-0.3-2.6-1l0.7-0.8c0.6,0.6,1.3,0.8,2,0.8c0.3,0,0.6-0.1,0.8-0.2c0.2-0.1,0.3-0.3,0.3-0.6s-0.1-0.4-0.3-0.6
			c-0.2-0.1-0.5-0.3-1-0.4c-0.5-0.1-0.8-0.2-1.1-0.3c-0.2-0.1-0.5-0.2-0.6-0.4c-0.4-0.3-0.6-0.7-0.6-1.3s0.2-1,0.6-1.3
			c0.4-0.3,0.9-0.5,1.6-0.5c0.4,0,0.8,0.1,1.2,0.2s0.7,0.3,1,0.6l-0.6,0.8c-0.2-0.2-0.4-0.3-0.8-0.4
			C26.9,154.5,26.6,154.5,26.3,154.5z"/>
		<path style="fill:#878686;" d="M35.3,159.1c-0.6,0.6-1.4,0.9-2.4,0.9c-0.9,0-1.7-0.3-2.4-0.9c-0.6-0.6-1-1.4-1-2.3s0.3-1.7,1-2.3
			c0.6-0.6,1.4-0.9,2.4-0.9c0.9,0,1.7,0.3,2.4,0.9c0.6,0.6,1,1.4,1,2.3S35.9,158.5,35.3,159.1z M34.5,155.1c-0.4-0.4-1-0.7-1.6-0.7
			s-1.2,0.2-1.6,0.7c-0.4,0.4-0.6,1-0.6,1.6s0.2,1.2,0.6,1.6c0.4,0.4,1,0.7,1.6,0.7s1.2-0.2,1.6-0.7c0.4-0.4,0.6-1,0.6-1.6
			S35,155.6,34.5,155.1z"/>
	</g>
</g>
<g id="Layer_2">
	<rect style="fill:none;stroke:#828282;stroke-miterlimit:10;" width="127" height="166"/>
</g>
</svg>
